<svg width="103" height="23" viewBox="0 0 103 23" fill="none" xmlns="http://www.w3.org/2000/svg">
<path fill-rule="evenodd" clip-rule="evenodd" d="M5.13164 13.1602L4.13636 15.0336V21.3273H0.916363V0.836355H4.13636V9.76454L8.35164 0.836355H11.5716L7.09291 9.96945L11.5716 21.3273H8.26382L5.13164 13.1602ZM16.1173 16.6144C16.1173 17.3559 16.2685 17.878 16.571 18.1804C16.8735 18.4829 17.2784 18.6342 17.7858 18.6342C18.2932 18.6342 18.6981 18.4829 19.0006 18.1804C19.3031 17.878 19.4544 17.3559 19.4544 16.6144V5.54926C19.4544 4.80768 19.3031 4.28566 19.0006 3.98317C18.6981 3.68069 18.2932 3.52945 17.7858 3.52945C17.2784 3.52945 16.8735 3.68069 16.571 3.98317C16.2685 4.28566 16.1173 4.80768 16.1173 5.54926V16.6144ZM12.8973 5.75417C12.8973 4.09538 13.3168 2.82203 14.156 1.93408C14.9952 1.04614 16.2051 0.602173 17.7858 0.602173C19.3666 0.602173 20.5765 1.04614 21.4156 1.93408C22.2548 2.82203 22.6744 4.09538 22.6744 5.75417V16.4094C22.6744 18.0682 22.2548 19.3416 21.4156 20.2295C20.5765 21.1175 19.3666 21.5614 17.7858 21.5614C16.2051 21.5614 14.9952 21.1175 14.156 20.2295C13.3168 19.3416 12.8973 18.0682 12.8973 16.4094V5.75417ZM27.9518 6.48599V21.3273H25.0538V0.836355H29.0935L32.4013 13.1016V0.836355H35.27V21.3273H31.9622L27.9518 6.48599ZM37.5031 5.75417C37.5031 4.09538 37.8983 2.82203 38.6886 1.93408C39.479 1.04614 40.6645 0.602173 42.2453 0.602173C43.826 0.602173 45.0115 1.04614 45.8019 1.93408C46.5923 2.82203 46.9874 4.09538 46.9874 5.75417V6.39817H43.9431V5.54926C43.9431 4.80768 43.8016 4.28566 43.5186 3.98317C43.2357 3.68069 42.8405 3.52945 42.3331 3.52945C41.8257 3.52945 41.4305 3.68069 41.1475 3.98317C40.8646 4.28566 40.7231 4.80768 40.7231 5.54926C40.7231 6.25181 40.8792 6.87141 41.1915 7.40808C41.5037 7.94475 41.894 8.45214 42.3624 8.93026C42.8307 9.40839 43.3332 9.8865 43.8699 10.3646C44.4066 10.8428 44.9091 11.3648 45.3775 11.9307C45.8458 12.4967 46.2361 13.1407 46.5484 13.8627C46.8606 14.5848 47.0167 15.4337 47.0167 16.4094C47.0167 18.0682 46.6118 19.3416 45.8019 20.2295C44.992 21.1175 43.7967 21.5614 42.216 21.5614C40.6353 21.5614 39.44 21.1175 38.6301 20.2295C37.8202 19.3416 37.4153 18.0682 37.4153 16.4094V15.1507H40.4596V16.6144C40.4596 17.3559 40.6109 17.8731 40.9134 18.1658C41.2158 18.4585 41.6208 18.6049 42.1282 18.6049C42.6356 18.6049 43.0405 18.4585 43.343 18.1658C43.6455 17.8731 43.7967 17.3559 43.7967 16.6144C43.7967 15.9118 43.6406 15.2922 43.3284 14.7555C43.0161 14.2189 42.6258 13.7115 42.1575 13.2334C41.6891 12.7552 41.1866 12.2771 40.6499 11.799C40.1132 11.3209 39.6107 10.7988 39.1424 10.2329C38.674 9.66696 38.2837 9.02296 37.9715 8.3009C37.6592 7.57884 37.5031 6.72994 37.5031 5.75417ZM48.2545 0.836355H58.2073V3.76363H54.8409V21.3273H51.6209V3.76363H48.2545V0.836355ZM66.6754 21.3273C66.6364 21.1907 66.5974 21.0638 66.5584 20.9467C66.5193 20.8296 66.4852 20.6833 66.4559 20.5076C66.4266 20.332 66.4071 20.1076 66.3974 19.8344C66.3876 19.5611 66.3827 19.2196 66.3827 18.8098V15.5898C66.3827 14.6336 66.2168 13.9603 65.8851 13.57C65.5533 13.1797 65.0167 12.9845 64.2751 12.9845H63.1627V21.3273H59.9427V0.836355H64.802C66.4803 0.836355 67.6951 1.22665 68.4464 2.00726C69.1978 2.78787 69.5735 3.96853 69.5735 5.54926V7.15926C69.5735 9.26691 68.8709 10.6525 67.4658 11.316C68.2854 11.6478 68.8465 12.1893 69.149 12.9406C69.4515 13.692 69.6027 14.6043 69.6027 15.6776V18.8391C69.6027 19.3465 69.6222 19.7904 69.6613 20.171C69.7003 20.5515 69.7979 20.937 69.954 21.3273H66.6754ZM63.1627 3.76363V10.0573H64.4215C65.0264 10.0573 65.4997 9.90114 65.8412 9.5889C66.1827 9.27666 66.3535 8.71072 66.3535 7.89108V5.87126C66.3535 5.12968 66.2217 4.59302 65.9583 4.26126C65.6948 3.9295 65.2801 3.76363 64.7142 3.76363H63.1627ZM75.1144 0.836355V16.6436C75.1144 17.3852 75.2656 17.9024 75.5681 18.1951C75.8706 18.4878 76.2755 18.6342 76.7829 18.6342C77.2903 18.6342 77.6952 18.4878 77.9977 18.1951C78.3002 17.9024 78.4514 17.3852 78.4514 16.6436V0.836355H81.4958V16.4387C81.4958 18.0975 81.0909 19.3709 80.281 20.2588C79.4711 21.1468 78.2758 21.5907 76.6951 21.5907C75.1144 21.5907 73.9191 21.1468 73.1092 20.2588C72.2993 19.3709 71.8944 18.0975 71.8944 16.4387V0.836355H75.1144ZM92.8202 0.836355H102.773V3.76363H99.4065V21.3273H96.1865V3.76363H92.8202V0.836355Z" fill="white"/>
<path fill-rule="evenodd" clip-rule="evenodd" d="M83.0254 11.4852L91.389 1.03064V21.9397L83.0254 11.4852Z" fill="#00A4E5"/>
</svg>
